
<svg width="579px" height="579px" viewBox="0 0 579 579" version="1.1" xmlns="http://www.w3.org/2000/svg" xmlns:xlink="http://www.w3.org/1999/xlink">
    <defs>
        <circle id="path--t9bzsjrjf-1" cx="289.5" cy="289.5" r="289.5"></circle>
    </defs>
    <g id="Page-2" stroke="none" stroke-width="1" fill="none" fill-rule="evenodd">
        <g id="Group-3">
            <mask id="mask--t9bzsjrjf-2" fill="white">
                <use xlink:href="#path--t9bzsjrjf-1"></use>
            </mask>
            <use id="Oval" fill="#FF5858" xlink:href="#path--t9bzsjrjf-1"></use>
            <g id="cat" mask="url(#mask--t9bzsjrjf-2)">
                <g transform="translate(89.350223, 149.000744)">
                    <ellipse id="Oval" stroke="none" fill="#FF5858" cx="154.649777" cy="159.999256" rx="24" ry="31"></ellipse>
                    <path d="M68.3195358,101.052423 C102.949743,77.4790769 120.264846,58.3970744 120.264846,43.8064157 C120.264846,21.9204278 68.350932,14.1763556 38.2576986,14.1763556 C8.16446523,14.1763556 0.353608428,22.6258453 24.7714421,62.3850545 C41.0499979,88.8911939 55.5660291,101.780317 68.3195358,101.052423 Z" id="Oval" stroke="none" fill="#000000" transform="translate(65.283368, 57.628981) rotate(17.000000) translate(-65.283368, -57.628981) "></path>
                    <path d="M199.897072,279.999256 C255.883269,279.999256 356.814881,263.834209 385.903867,228.769465 C403.289861,207.811862 367.313121,168.293343 367.313128,141.124736 C367.313128,68.4995817 289.34527,16.9992559 199.897072,16.9992559 C110.448874,16.9992559 37.9367829,75.8735757 37.9367829,148.49873 C37.9367829,170.515834 9.74769586,199.666408 21.5278784,217.898679 C48.605557,259.806991 137.566067,279.999256 199.897072,279.999256 Z" id="Oval" stroke="none" fill="#FFFFFF"></path>
                    <circle id="Oval" stroke="none" fill="#FFFFFF" cx="159.149777" cy="149.499256" r="13.5"></circle>
                    <path d="M130.649777,195.999256 C171.518849,195.999256 204.649777,162.868327 204.649777,121.999256 C204.649777,81.1301844 200.018849,23.04644 159.149777,23.04644 C138.972669,23.04644 106.342176,35.1609114 82.7657272,54.5013597 C58.587684,74.3353136 43.7125216,101.658702 43.7125216,122.350665 C43.7125216,163.219737 89.780706,195.999256 130.649777,195.999256 Z" id="Oval" stroke="#000000" stroke-width="1" fill="#000000"></path>
                    <g id="eyes" stroke="none" stroke-width="1" fill="none" transform="translate(130.649777, 114.999256)">
                        <ellipse id="Oval" stroke="#FFFFFF" fill="#333333" cx="24" cy="31" rx="24" ry="31"></ellipse>
                        <ellipse id="Oval" stroke="#FFFFFF" fill="#333333" cx="131" cy="31" rx="24" ry="31"></ellipse>
                        <circle id="Oval" fill="#FFFFFF" cx="28.5" cy="20.5" r="13.5"></circle>
                        <circle id="Oval" fill="#FFFFFF" cx="134.5" cy="20.5" r="13.5"></circle>
                    </g>
                    <path d="M332.359169,104.387175 C368.462942,70.5763546 386.514828,46.3756148 386.514828,31.7849562 C386.514828,9.89896826 344.055764,20.2247086 313.96253,20.2247086 C283.869297,20.2247086 276.05844,28.6741984 300.476274,68.4334075 C316.75483,94.939547 327.382461,106.924136 332.359169,104.387175 Z" id="Oval" stroke="none" fill="#FFFFFF" transform="translate(336.260774, 61.255261) rotate(-26.000000) translate(-336.260774, -61.255261) "></path>
                </g>
            </g>
        </g>
    </g>
</svg>
